<svg width="384" height="367" viewBox="0 0 384 367" fill="none" xmlns="http://www.w3.org/2000/svg">
<path d="M177.494 6.29948C196.861 6.38348 216.221 7.01345 235.552 8.18515C213.664 35.8797 173.437 73.8677 147.643 99.6451C111.984 135.279 75.8124 173.103 39.7395 207.965C33.5765 213.92 26.5946 219.871 20.1376 225.576L19.3292 224.402C-0.69473 195.116 -10.5387 167.22 16.7569 137.581C52.2859 98.9984 89.1924 61.3863 125.234 23.2409C130.916 17.227 136.861 11.4 143.874 6.95677C154.839 6.5431 166.472 6.50947 177.494 6.29948Z" fill="white"/>
<path d="M96.7494 207.883C101.867 210.814 127.426 239.502 132.774 245.535C167.127 284.285 202.891 323.438 235.731 363.442C224.284 365.376 203.236 365.453 191.428 365.636C176.056 365.432 160.679 365.619 145.314 366.201C114.203 327.506 82.6995 292.291 52.4956 252.279L96.7494 207.883Z" fill="white"/>
<path d="M323.376 0.0213377C343.383 -0.0794539 363.392 0.176734 383.391 0.791983C330.438 59.3141 269.096 116.064 215.901 173.736L337.121 310.357C350.14 325.213 373.516 349.396 384 364.228C377.644 364.767 370.639 364.998 364.218 365.338C341.044 366.842 315.663 366.086 292.307 365.727C283.192 356.87 271.781 342.87 263.262 332.991L214.181 276.169C192.21 250.755 169.228 225.704 148.045 200.007C120.155 166.172 148.547 141.789 172.168 118.195C180.29 110.084 188.658 101.884 196.492 93.6022C210.47 78.7816 224.313 63.8329 238.012 48.7541C252.601 32.7051 269.503 12.9311 286.925 0.542129L323.376 0.0213377Z" fill="white"/>
</svg>
