<svg width="556" height="175" viewBox="0 0 556 175" fill="none" xmlns="http://www.w3.org/2000/svg">
<path d="M547.022 54.166C549.206 53.938 552.628 54.003 554.917 53.973C555.044 62.972 555.08 71.973 555.026 80.973C553.396 80.83 551.761 80.737 550.125 80.694C519.177 79.787 520.958 106.241 521 128.307L521.026 160.013L493.989 160.034L493.977 152.125L493.981 55.5L520.016 55.502C520.078 61.858 520.109 67.74 519.349 74.061C520.442 72.346 521.604 70.677 522.832 69.056C529.333 60.405 536.293 55.709 547.022 54.166Z" fill="#1a1a1a"/>
<path d="M43.075 99C45.512 100.396 57.684 114.058 60.231 116.931C76.591 135.385 93.623 154.031 109.262 173.082C103.811 174.003 93.787 174.04 88.164 174.127C80.843 174.03 73.52 174.119 66.203 174.396C51.387 155.968 36.384 139.198 22 120.143L43.075 99Z" fill="#1a1a1a"/>
<path d="M84.5281 0C93.7511 0.04 102.971 0.34001 112.177 0.89801C101.753 14.087 82.5962 32.178 70.3122 44.454C53.3302 61.424 36.1041 79.437 18.9251 96.039C15.9902 98.875 12.6651 101.709 9.59014 104.426L9.20515 103.867C-0.330852 89.92 -5.01886 76.635 7.98014 62.52C24.9001 44.146 42.4761 26.234 59.6401 8.06802C62.3461 5.20402 65.1771 2.42902 68.5171 0.313019C73.7391 0.116019 79.2791 0.1 84.5281 0Z" fill="#1a1a1a"/>
<path d="M333.597 14.242C342.832 14.282 352.257 14.087 361.506 13.991L361.756 117.275L361.802 144.663C361.832 148.298 362.152 156.324 361.814 159.432L360.994 160.011L332.497 160.023L332.293 48.275C332.296 44.071 331.945 17.192 332.626 14.648L333.597 14.242Z" fill="#1a1a1a"/>
<path d="M221.017 14.123C230.376 13.994 239.735 13.95 249.095 13.992C249.491 31.426 249.637 48.865 249.533 66.303C249.536 74.959 249.94 89.28 248.995 97.37C260.996 85.166 275.929 66.741 288.114 55.975L318.372 56.022C306.081 68.324 291.714 84.212 279.675 97.084L307.004 137.817C312.075 145.15 317.066 152.539 321.976 159.98L289.232 160.029C278.916 145.811 269.398 130.939 259.79 116.227C256.426 119.945 252.996 123.604 249.502 127.2L249.506 160.005L220.989 160.034L221.017 14.123Z" fill="#1a1a1a"/>
<path d="M155.001 0.0101617C164.529 -0.0378383 174.058 0.084166 183.582 0.377166C158.364 28.2472 129.151 55.2732 103.818 82.7382L132.683 115.27L161.547 147.801C167.747 154.876 178.879 166.393 183.872 173.456C180.845 173.713 177.509 173.823 174.451 173.985C163.415 174.701 151.328 174.341 140.205 174.17C135.864 169.952 130.43 163.285 126.373 158.58L102.999 131.52C92.5364 119.417 81.5914 107.487 71.5034 95.2492C58.2214 79.1362 71.7424 67.5242 82.9914 56.2882C86.8594 52.4252 90.8444 48.5202 94.5754 44.5762C101.232 37.5182 107.824 30.3992 114.348 23.2182C121.296 15.5752 129.345 6.15818 137.642 0.258178L155.001 0.0101617Z" fill="#1a1a1a"/>
<path fill-rule="evenodd" clip-rule="evenodd" d="M420.637 54.201C431.507 52.539 450.467 55.634 459.627 62.602C476.422 75.38 472.848 98.724 473.092 117.272C473.284 131.817 472.333 145.651 474.423 159.995L448.188 160.027C447.566 156.224 446.912 152.426 446.225 148.634C432.721 159.912 420.269 164.923 402.425 161.536C391.88 159.534 385.439 155.069 379.405 146.246C375.301 137.832 374.509 126.993 378.747 118.488C386.488 102.952 408.553 101.758 423.5 98.944C431.353 97.465 437.528 96.449 445.168 93.821C445.133 89.945 445.404 84.731 443.269 81.348C437.742 72.593 420.511 72.444 412.669 77.752C408.441 80.614 407.596 83.394 406.663 88.011L379.731 88.034C385.544 64.739 397.226 56.602 420.637 54.201Z M444.101 112.187L444.905 112.982C448.807 134.397 427.705 151.151 408.397 140.653C397.952 130.897 404.418 122.521 415.161 118.118C422.997 114.906 435.471 113.85 444.101 112.187Z" fill="#1a1a1a"/>
</svg>
